<svg width="20" height="24" viewBox="0 0 20 24" fill="none" xmlns="http://www.w3.org/2000/svg">
<path fill-rule="evenodd" clip-rule="evenodd" d="M14.3894 0C14.5988 1.42219 14.0199 2.81546 13.2563 3.80122C12.4393 4.85857 11.0311 5.67636 9.66669 5.63368C9.41762 4.27207 10.0554 2.86916 10.8313 1.92608C11.6825 0.885253 13.1413 0.0867355 14.3894 0ZM18.4878 20.018C19.1912 18.94 19.454 18.3962 20 17.1791C16.0286 15.6688 15.3922 10.0227 19.3226 7.85573C18.1238 6.35231 16.4391 5.48083 14.8489 5.48083C13.7031 5.48083 12.918 5.77984 12.2043 6.05168C11.6096 6.27821 11.0644 6.48586 10.4012 6.48586C9.68467 6.48586 9.0501 6.25834 8.38565 6.0201C7.65552 5.75831 6.8893 5.48358 5.93853 5.48358C4.15399 5.48358 2.25449 6.57397 1.0502 8.4381C-0.642649 11.0636 -0.353892 15.9992 2.39134 20.2038C3.37257 21.7086 4.6836 23.3993 6.39835 23.4144C7.10986 23.4215 7.58333 23.2091 8.09569 22.9793C8.68213 22.7163 9.31953 22.4304 10.4231 22.4245C11.5333 22.4179 12.1606 22.7073 12.7393 22.9742C13.2385 23.2044 13.7014 23.418 14.4069 23.4103C16.123 23.3965 17.5066 21.5228 18.4878 20.018Z" fill="white"/>
</svg>
