<svg width="11" height="12" viewBox="0 0 11 12" fill="none" xmlns="http://www.w3.org/2000/svg">
<g clip-path="url(#clip0)">
<path d="M8.48586 5.21857C8.43061 5.16293 8.36945 5.11597 8.30592 5.07513L4.04241 0.811821C3.6263 0.396105 2.95192 0.395908 2.53561 0.812018C2.1195 1.22793 2.1195 1.90251 2.53561 2.31882L6.20761 5.99042L2.51707 9.68135C2.10076 10.0971 2.10076 10.7718 2.51707 11.1882C2.72522 11.3959 2.99769 11.4999 3.27017 11.4999C3.54264 11.4999 3.81571 11.3959 4.02327 11.1878L8.30592 6.9057C8.36945 6.86486 8.43042 6.8181 8.48586 6.76226C8.69894 6.54918 8.80115 6.2694 8.79641 5.99042C8.80134 5.71123 8.69894 5.43106 8.48586 5.21857Z" fill="white"/>
</g>
<defs>
<clipPath id="clip0">
<rect width="11" height="11" fill="white" transform="translate(0 0.5)"/>
</clipPath>
</defs>
</svg>
