<svg width="22" height="22" viewBox="0 0 22 22" fill="none" xmlns="http://www.w3.org/2000/svg">
<path d="M11 4.62134C12.9529 4.62134 14.2702 5.4649 15.0214 6.16978L17.9565 3.30401C16.1538 1.62845 13.808 0.600006 11 0.600006C6.93246 0.600006 3.41957 2.93423 1.70935 6.33156L5.07202 8.94312C5.91557 6.43556 8.24979 4.62134 11 4.62134Z" fill="#EA4335"/>
<path d="M20.984 11.2311C20.984 10.376 20.9147 9.752 20.7644 9.10489H11V12.9644H16.7316C16.616 13.9236 15.992 15.368 14.6053 16.3387L17.8871 18.8809C19.8516 17.0667 20.984 14.3973 20.984 11.2311Z" fill="#4285F4"/>
<path d="M5.08353 13.0569C4.86398 12.4098 4.73686 11.7164 4.73686 11C4.73686 10.2836 4.86398 9.59022 5.07198 8.94311L1.70931 6.33156C1.00442 7.74134 0.599976 9.32445 0.599976 11C0.599976 12.6756 1.00442 14.2587 1.70931 15.6684L5.08353 13.0569Z" fill="#FBBC05"/>
<path d="M10.9999 21.4C13.8079 21.4 16.1653 20.4756 17.887 18.8809L14.6053 16.3387C13.727 16.9511 12.5484 17.3787 10.9999 17.3787C8.24971 17.3787 5.91549 15.5645 5.08349 13.0569L1.72083 15.6685C3.43105 19.0658 6.93238 21.4 10.9999 21.4Z" fill="#34A853"/>
</svg>
